<svg xmlns="http://www.w3.org/2000/svg" width="32.99" height="19.752" viewBox="0 0 32.99 19.752">
  <path id="Tracciato_68" data-name="Tracciato 68" d="M185.095,0h.14c.28.49.63.981.911,1.471a2.168,2.168,0,0,0,1.541,1.261c.07,0,.14.07.21.14-.14.49-.35.911-.49,1.4a.447.447,0,0,0,0,.42c.42.77.841,1.611,1.191,2.381h.14c.49-.14.981-.35,1.471-.49a.575.575,0,0,1,.49.07L191.959,7.7a.9.9,0,0,0,.7.28,54.739,54.739,0,0,1,8.965,0,17.754,17.754,0,0,1,5.673,1.4,6.841,6.841,0,0,1,2.522,1.751,1.475,1.475,0,0,1,.35.911c.07,1.611.14,3.152.28,4.763a14.746,14.746,0,0,0,.14,1.751v.77h-.7c-.14-.77.14-1.541-.21-2.171a2.669,2.669,0,0,0-.21.7v1.261c0,.07-.07.14-.14.21a.364.364,0,0,1-.14-.28,11.873,11.873,0,0,0-.07-1.611,1.013,1.013,0,0,0-.14-.49h-.14a2.489,2.489,0,0,0-.14.7v1.471c0,.21-.07.28-.35.21V17.581c0-.28,0-.63-.35-.63a1.1,1.1,0,0,0-.28.7,10.31,10.31,0,0,0,0,1.471c0,.07-.07.14-.14.21-.07-.07-.14-.14-.14-.21V17.791a1.412,1.412,0,0,0-.21-.77c-.14-.28-.35-.28-.49,0a1.412,1.412,0,0,0-.21.77V19.4h-.56V17.721a1.412,1.412,0,0,0-.21-.77.468.468,0,0,0-.841,0,1.6,1.6,0,0,0-.21.77v1.751h-.49V17.651a2.072,2.072,0,0,0-.14-.7c-.21-.49-.7-.49-.981,0a1.508,1.508,0,0,0-.14.77v1.751H201.2v-2.1a1.05,1.05,0,0,0-1.121-1.051,1.129,1.129,0,0,0-1.051,1.051v2.171h-1.051V17.791a1.307,1.307,0,0,0-1.331-1.4,1.255,1.255,0,0,0-1.261,1.4v1.821H194.06V17.23a1.391,1.391,0,0,0-1.681-1.331,1.425,1.425,0,0,0-1.121,1.331v2.522h-4.483v-2.1a1.541,1.541,0,0,0-.28-.911.759.759,0,0,0-1.331,0,1.865,1.865,0,0,0-.21.841v2.171h-.981V17.791a1.938,1.938,0,0,0-.07-.63c-.07-.35-.28-.63-.63-.63a.673.673,0,0,0-.63.56,2.159,2.159,0,0,0-.07.7v1.961h-.77V18a1.938,1.938,0,0,0-.07-.63c-.07-.28-.14-.56-.49-.56s-.42.28-.49.56a1.507,1.507,0,0,0,0,.56v1.751h-.49V17.861a2.489,2.489,0,0,0-.14-.7c-.14-.28-.35-.28-.49,0a2.045,2.045,0,0,0-.14.63V19.4c0,.21,0,.35-.28.21v-1.4a2.383,2.383,0,0,0-.07-.7c0-.07-.14-.21-.21-.28-.07.07-.21.14-.21.28a1.939,1.939,0,0,0-.07.63v1.541h-.911c.07-.63.07-1.191.14-1.751a.917.917,0,0,0-.28-.911v-.35a2.387,2.387,0,0,0,.49-1.541,3.375,3.375,0,0,0,0-.841,2.237,2.237,0,0,1,.07-1.891,3.674,3.674,0,0,0,.14-1.261,6.025,6.025,0,0,1-.07-1.121,8.359,8.359,0,0,0,.42-2.592v-.56a3.957,3.957,0,0,1,0-.911A5.774,5.774,0,0,1,180.262,3.5a24.067,24.067,0,0,1,4.9-3.5C184.884.14,184.954.07,185.095,0ZM177.67,16.67c.911-.28,1.611-.63,2.451-.841s1.751-.42,2.662-.56a83.106,83.106,0,0,1,11.067-.7h.981a.069.069,0,0,0-.07-.07l.42-.42c.07-.28-.14-.35-.42-.35-3.012.21-6.024.35-8.965.63a31.23,31.23,0,0,0-6.094,1.191c-.63.21-1.191.49-1.821.77C177.74,16.39,177.74,16.6,177.67,16.67Zm12.047-3.852v-2.1a1.158,1.158,0,0,0-2.311-.07c-.07.77,0,1.611,0,2.451C188.176,12.958,188.947,12.888,189.717,12.818Zm7.915.35V11.7a1.106,1.106,0,0,0-1.121-1.121c-.63,0-1.261.35-1.261.981a12.359,12.359,0,0,0,0,1.611Zm-13.168.49a12.929,12.929,0,0,0,1.611-.28c.07,0,.14-.14.14-.28V11.207a.989.989,0,0,0-.841-.981.967.967,0,0,0-.911.841Zm5.323-6.374h-.21a48.2,48.2,0,0,0-7.565,2.592,12.53,12.53,0,0,0-3.292,2.1.7.7,0,0,0-.28.35c3.362-2.522,7.354-3.5,11.347-4.483Zm-5.323,1.121c.63-.21,1.191-.42,1.751-.63,0-.42.07-.911.07-1.331V6.3a.989.989,0,0,0-.84-.981.925.925,0,0,0-.911.911C184.464,6.934,184.464,7.635,184.464,8.405Zm1.751-5.673c-2.522.911-7,4.273-7.214,5.533a20.521,20.521,0,0,1,7.425-4.9A2.225,2.225,0,0,1,186.215,2.732Zm-2.592,11.207V11.907a.767.767,0,0,0-.7-.77.81.81,0,0,0-.7.7c-.07.77,0,1.541,0,2.311C182.713,14.079,183.133,14.009,183.624,13.938Zm-1.191-4.623c.49-.21.841-.35,1.261-.56.07,0,.14-.14.14-.21V7.074c-.07-.49-.35-.77-.7-.77s-.63.28-.7.77V9.316Zm21.153,5.6V12.538a.479.479,0,0,0-.49-.49.541.541,0,0,0-.56.49c-.07.77,0,1.611,0,2.381Zm-9.526-2.171V11.487a.832.832,0,0,0-.841-.7.907.907,0,0,0-.911.7,6.758,6.758,0,0,0,0,1.191A15.235,15.235,0,0,0,194.06,12.748Zm11.207,2.171V12.678c0-.21-.28-.42-.42-.49-.28-.07-.49.21-.49.49v2.241ZM200.434,13.8h1.331V12.538a.713.713,0,0,0-.63-.77c-.35,0-.63.28-.7.77Zm-19.682-3.782.841-.42c.07-.07.14-.14.14-.21a9.388,9.388,0,0,0-.07-1.4.6.6,0,0,0-.49-.49c-.28-.07-.49.28-.49.49A18.369,18.369,0,0,1,180.752,10.016Zm-.21,4.483c.28-.07.49-.07.77-.14.21,0,.28-.14.28-.35V12.748a1.32,1.32,0,0,0-.14-.56c-.21-.35-.49-.28-.7,0a1,1,0,0,0-.14.42A15.847,15.847,0,0,0,180.542,14.5Zm26.126.49V12.818c0-.14-.21-.28-.35-.42-.14.14-.35.28-.35.42v2.171Zm-27.317-.14c.7-.14.7-.14.7-.77v-.56a2.489,2.489,0,0,0-.14-.7c0-.07-.14-.14-.28-.21q-.105,0-.21.21a.525.525,0,0,0-.07.35Zm.21-4.133c.07,0,.07.07.14.07.21-.21.49-.42.56-.7a2.308,2.308,0,0,0,0-.981c0-.21-.21-.35-.28-.56-.14.21-.35.35-.35.56A12.945,12.945,0,0,0,179.561,10.717Zm28.157,4.2V13.1a.465.465,0,0,0-.28-.35c-.07.14-.28.21-.28.35v1.821Zm-29.208.21c.07,0,.07.07.14.07.14-.14.35-.28.35-.42a9.34,9.34,0,0,0,0-1.4,1,1,0,0,0-.14-.42h-.14A5.874,5.874,0,0,0,178.511,15.129Zm.21-3.782c.07,0,.07,0,.14.07.14-.14.35-.35.35-.49a7.577,7.577,0,0,0,0-1.261c0-.14-.14-.28-.14-.35h-.14A5.165,5.165,0,0,0,178.721,11.347Zm29.908,3.642c-.14-.63.14-1.261-.21-1.821-.35.56-.14,1.191-.21,1.821Zm.49-1.611c-.28.49-.21,1.471,0,1.541Zm.35.14c-.28.49-.21,1.331,0,1.4Z" transform="translate(-177.6)" fill="#b22222"/>
</svg>
