<?xml version="1.0" encoding="utf-8"?>
<!-- Generator: Adobe Illustrator 26.1.0, SVG Export Plug-In . SVG Version: 6.00 Build 0)  -->
<svg version="1.1" id="Livello_1" xmlns="http://www.w3.org/2000/svg" xmlns:xlink="http://www.w3.org/1999/xlink" x="0px" y="0px"
	 viewBox="0 0 611.39 90.03" style="enable-background:new 0 0 611.39 90.03;" xml:space="preserve">
<style type="text/css">
	.st0{fill:#1D1D1B;}
	.st1{fill:#E42320;}
</style>
<g>
</g>
<path class="st0" d="M335.44,72.74c-4.21,0-6.08-2.46-6.08-6.31V46.78c0-3.98,1.87-7.13,5.96-7.13c3.51,0,5.96,2.92,5.96,6.9v19.65
	C341.28,69.82,339.65,72.74,335.44,72.74 M335.32,89.11c13.68,0,28.54-6.43,28.54-23.97V47.6c0-18.13-14.85-24.44-28.77-24.44
	c-14.27,0-28.3,7.6-28.3,24.91v17.19C306.78,83.5,321.28,89.11,335.32,89.11 M288.53,88.88c4.79,0,9.01-0.47,13.8-1.87V69.35
	c-1.99,0.35-3.39,0.47-5.73,0.47c-3.74,0-4.44-2.1-4.44-4.33V43.62h12.28V25.61h-12.28V9.24H269.7v16.37h-7.6v18.01h7.6v28.3
	C269.7,85.14,279.29,88.88,288.53,88.88 M252.72,89c4.21,0,8.42-0.82,12.05-1.99V69.58c-1.52,0.23-3.04,0.35-3.98,0.35
	c-3.51,0-3.98-1.64-3.98-3.86V4.32h-22.46v68.88C234.36,83.38,241.37,89,252.72,89 M202.23,72.74c-4.21,0-6.08-2.46-6.08-6.31V46.78
	c0-3.98,1.87-7.13,5.97-7.13c3.51,0,5.96,2.92,5.96,6.9v19.65C208.08,69.82,206.44,72.74,202.23,72.74 M202.11,89.11
	c13.68,0,28.54-6.43,28.54-23.97V47.6c0-18.13-14.85-24.44-28.77-24.44c-14.27,0-28.3,7.6-28.3,24.91v17.19
	C173.58,83.5,188.08,89.11,202.11,89.11 M88.65,87.71h20.93V35.67h0.35l11.34,37.19h15.67l11.11-37.19h0.23v52.04h21.05V4.32h-29.12
	l-10.17,32.51h-0.35L119.52,4.32H88.65V87.71z"/>
<rect x="58.96" y="24.97" class="st0" width="20.96" height="62.74"/>
<rect x="29.53" y="46.02" class="st0" width="20.96" height="41.69"/>
<rect y="66.86" class="st0" width="20.96" height="20.85"/>
<g>
	<path class="st1" d="M368.83,90.15V4.6h59.3v19.57h-34.57v14.24h27.36v19.57h-27.36v32.17H368.83z"/>
	<path class="st1" d="M425.7,67.12V49.49c0-4.26,0.81-8.07,2.44-11.43c1.63-3.36,3.82-6.04,6.57-8.06c2.75-2.01,5.81-3.52,9.16-4.54
		c3.35-1.02,6.91-1.52,10.68-1.52c2.95,0,5.78,0.26,8.5,0.79c2.72,0.53,5.35,1.43,7.91,2.7c2.56,1.27,4.78,2.84,6.66,4.72
		c1.88,1.88,3.38,4.26,4.51,7.15c1.12,2.89,1.69,6.13,1.69,9.73V67c0,3.48-0.56,6.62-1.69,9.43c-1.12,2.81-2.63,5.15-4.51,7
		c-1.88,1.86-4.08,3.41-6.6,4.66c-2.52,1.25-5.13,2.15-7.83,2.7c-2.7,0.55-5.5,0.82-8.41,0.82c-2.99,0-5.83-0.24-8.52-0.73
		s-5.32-1.33-7.88-2.52c-2.56-1.19-4.76-2.7-6.6-4.51c-1.84-1.82-3.32-4.15-4.42-7C426.25,74,425.7,70.75,425.7,67.12z
		 M448.61,68.21c0,4.31,2.1,6.47,6.3,6.47c2.04,0,3.55-0.62,4.53-1.86c0.98-1.24,1.47-2.86,1.47-4.84V47.93
		c0-2.06-0.57-3.75-1.71-5.07c-1.14-1.32-2.61-1.98-4.42-1.98c-2.04,0-3.58,0.68-4.62,2.04c-1.04,1.36-1.56,3.11-1.56,5.25V68.21z"
		/>
	<path class="st1" d="M487.85,67.12V49.49c0-4.26,0.81-8.07,2.44-11.43c1.63-3.36,3.82-6.04,6.57-8.06
		c2.75-2.01,5.81-3.52,9.16-4.54c3.35-1.02,6.91-1.52,10.68-1.52c2.95,0,5.78,0.26,8.5,0.79c2.72,0.53,5.35,1.43,7.91,2.7
		c2.56,1.27,4.78,2.84,6.66,4.72c1.88,1.88,3.38,4.26,4.51,7.15c1.12,2.89,1.69,6.13,1.69,9.73V67c0,3.48-0.56,6.62-1.69,9.43
		c-1.12,2.81-2.63,5.15-4.51,7c-1.88,1.86-4.08,3.41-6.6,4.66c-2.52,1.25-5.13,2.15-7.83,2.7c-2.7,0.55-5.5,0.82-8.41,0.82
		c-2.99,0-5.83-0.24-8.52-0.73s-5.32-1.33-7.88-2.52c-2.56-1.19-4.76-2.7-6.6-4.51c-1.84-1.82-3.32-4.15-4.42-7
		C488.4,74,487.85,70.75,487.85,67.12z M510.76,68.21c0,4.31,2.1,6.47,6.3,6.47c2.04,0,3.55-0.62,4.53-1.86
		c0.98-1.24,1.47-2.86,1.47-4.84V47.93c0-2.06-0.57-3.75-1.71-5.07c-1.14-1.32-2.61-1.98-4.42-1.98c-2.04,0-3.58,0.68-4.62,2.04
		c-1.04,1.36-1.56,3.11-1.56,5.25V68.21z"/>
	<path class="st1" d="M549.99,69.64V44.92c0-5.78,1.85-10.72,5.57-14.82c3.71-4.1,8.65-6.15,14.82-6.15c2.93,0,5.79,0.63,8.58,1.88
		c2.79,1.25,5.13,3.3,7,6.15h0.12V4.6h22.91v85.55h-21.92l-0.12-9.38h-0.47c-1.84,3.05-4.31,5.62-7.41,7.71
		c-3.11,2.09-6.36,3.13-9.75,3.13c-6.48,0-11.33-2.02-14.53-6.06C551.59,81.51,549.99,76.2,549.99,69.64z M572.9,67.47
		c0,2.23,0.62,3.89,1.85,4.98c1.23,1.09,2.74,1.64,4.54,1.64c1.8,0,3.38-0.8,4.75-2.4c1.37-1.6,2.05-3.73,2.05-6.39V47.55
		c0-2.46-0.69-4.26-2.08-5.39c-1.39-1.13-2.92-1.7-4.6-1.7c-4.34,0-6.5,2.21-6.5,6.62V67.47z"/>
</g>
</svg>
