<svg version="1.1"  xmlns="http://www.w3.org/2000/svg" xmlns:xlink="http://www.w3.org/1999/xlink" x="0px" y="0px" viewBox="0 0 696.19 97.51" xml:space="preserve">
<style type="text/css">
	.st0{fill:#009DDF;}
</style>
<g>
	<path class="st0" d="M655.98,51.64v-5.22c0-3.71,2.31-6.15,5.9-6.15c3.7,0,6.02,2.2,6.02,6.15v5.22H655.98z M662.46,90.27
		c8.91,0,17.94-1.97,25.23-5.45l-4.05-14.39c-3.59,1.16-11.11,3.13-17.82,3.13c-4.63,0-9.84-1.04-9.84-6.73v-3.25h32.99V48.73
		c0-15.43-11.69-23.9-27.32-23.9c-14.24,0-27.89,7.89-27.89,25.99v14.5C633.75,82.38,647.64,90.27,662.46,90.27 M615.74,90.04
		c4.75,0,8.91-0.46,13.66-1.86V70.66c-1.97,0.35-3.36,0.46-5.67,0.46c-3.7,0-4.4-2.09-4.4-4.29v-21.7h12.15V27.27h-12.15V11.03
		h-22.22v16.24h-7.52v17.87h7.52v28.08C597.11,86.33,606.6,90.04,615.74,90.04 M547.29,90.27c7.41,0,14.35-4.76,18.29-10.91h0.23
		l0.69,9.51h20.49V26.23h-22.11V64.4c0,5.69-3.01,8.82-6.25,8.82c-5.79,0-6.48-4.76-6.48-7.89v-39.1h-22.11v46.52
		C530.05,84.35,539.19,90.27,547.29,90.27 M516.01,90.15c4.17,0,8.33-0.81,11.92-1.97V70.9c-1.51,0.23-3.01,0.35-3.94,0.35
		c-3.47,0-3.93-1.62-3.93-3.83V6.15h-22.22v68.34C497.84,84.59,504.78,90.15,516.01,90.15 M465.41,74.72
		c-3.36,0-5.56-2.44-5.56-6.03c0-4.76,3.59-6.61,8.22-6.61h3.47v5.8C471.54,73.22,467.84,74.72,465.41,74.72 M455.57,90.15
		c4.28,0,13.08-1.62,16.9-10.67h0.58c0.58,6.85,1.04,9.4,1.04,9.4h20.49c0-0.81-0.93-7.66-0.93-14.04V46.76
		c0-15.08-12.62-21.93-26.74-21.93c-15.28,0-27.66,7.54-27.66,20.19v2.9h19.68v-1.86c0-2.44,1.04-6.15,6.13-6.15
		c4.51,0,6.48,2.44,6.48,5.57v5.57h-4.28c-12.73,0-29.51,4.87-29.51,21C437.75,84.47,445.62,90.15,455.57,90.15 M402.35,90.27
		c16.09,0,33.1-8.01,33.1-27.03c0-10.56-5.9-18.33-18.29-23.78l-9.03-3.94c-5.09-2.2-11-3.37-11-7.43c0-3.48,3.01-5.8,8.22-5.8
		c5.32,0,12.85,3.6,17.36,7.31l11.23-15.2c-7.64-7.31-19.1-9.51-29.28-9.51c-18.63,0-30.56,12.3-30.56,26.92
		c0,11.72,6.25,19.61,17.59,24.02l10.88,4.18c4.05,1.51,7.52,3.02,7.52,6.61c0,3.48-3.82,5.57-8.22,5.57
		c-7.06,0-14.82-4.41-19.56-8.59l-12.15,14.97C378.05,86.67,390.08,90.27,402.35,90.27"></path>
    <path d="M341.44,74.03c-4.17,0-6.02-2.44-6.02-6.26V48.27c0-3.94,1.85-7.08,5.9-7.08c3.47,0,5.9,2.9,5.9,6.85v19.49
		C347.22,71.13,345.6,74.03,341.44,74.03 M341.32,90.27c13.54,0,28.24-6.38,28.24-23.78v-17.4c0-17.98-14.7-24.25-28.47-24.25
		c-14.12,0-28.01,7.54-28.01,24.71V66.6C313.08,84.7,327.43,90.27,341.32,90.27 M295.01,90.04c4.75,0,8.91-0.46,13.66-1.86V70.66
		c-1.97,0.35-3.36,0.46-5.67,0.46c-3.7,0-4.4-2.09-4.4-4.29v-21.7h12.15V27.27H298.6V11.03h-22.22v16.24h-7.52v17.87h7.52v28.08
		C276.38,86.33,285.87,90.04,295.01,90.04 M259.57,90.15c4.17,0,8.33-0.81,11.92-1.97V70.9c-1.51,0.23-3.01,0.35-3.94,0.35
		c-3.47,0-3.93-1.62-3.93-3.83V6.16H241.4v68.34C241.4,84.59,248.35,90.15,259.57,90.15 M209.61,74.03c-4.17,0-6.02-2.44-6.02-6.26
		V48.27c0-3.94,1.85-7.08,5.9-7.08c3.47,0,5.9,2.9,5.9,6.85v19.49C215.39,71.13,213.77,74.03,209.61,74.03 M209.49,90.27
		c13.54,0,28.24-6.38,28.24-23.78v-17.4c0-17.98-14.7-24.25-28.47-24.25c-14.12,0-28.01,7.54-28.01,24.71V66.6
		C181.25,84.7,195.6,90.27,209.49,90.27 M97.2,88.88h20.72V37.25h0.35l11.23,36.89H145l11-36.89h0.23v51.63h20.83V6.16h-28.82
		l-10.07,32.25h-0.35L127.75,6.16H97.2V88.88z"></path>
    <rect x="67.73" y="26.64" width="20.74" height="62.24"></rect>
    <rect x="38.26" y="47.52" width="20.74" height="41.36"></rect>
    <rect x="8.78" y="68.2" width="20.74" height="20.68"></rect>
</g>
</svg>